<?xml version="1.0" standalone="no"?>
<!DOCTYPE svg PUBLIC "-//W3C//DTD SVG 20010904//EN"
 "http://www.w3.org/TR/2001/REC-SVG-20010904/DTD/svg10.dtd">
<svg version="1.0" xmlns="http://www.w3.org/2000/svg"
 width="256.000000pt" height="256.000000pt" viewBox="0 0 256.000000 256.000000"
 preserveAspectRatio="xMidYMid meet">
<metadata>
Created by potrace 1.11, written by Peter Selinger 2001-2013
</metadata>
<g transform="translate(0.000000,256.000000) scale(0.100000,-0.100000)"
fill="#000000" stroke="none">
<path d="M1175 2500 c0 -31 9 -40 18 -17 4 10 6 10 6 0 2 -27 16 -11 16 17 0
31 -9 40 -18 18 -4 -10 -6 -10 -6 0 -2 26 -16 10 -16 -18z"/>
<path d="M2330 2474 c0 -8 5 -12 10 -9 6 4 8 11 5 16 -9 14 -15 11 -15 -7z"/>
<path d="M2303 2467 c4 -10 3 -16 -2 -12 -5 3 -12 1 -15 -4 -8 -13 33 -21 57
-11 12 5 16 9 8 9 -8 1 -23 9 -34 19 -19 16 -20 16 -14 -1z"/>
<path d="M2295 2420 c-3 -5 -1 -10 4 -10 6 0 11 5 11 10 0 6 -2 10 -4 10 -3 0
-8 -4 -11 -10z"/>
<path d="M2330 2420 c0 -5 5 -10 11 -10 5 0 7 5 4 10 -3 6 -8 10 -11 10 -2 0
-4 -4 -4 -10z"/>
<path d="M164 2382 c-22 -15 -23 -42 -3 -53 23 -12 41 -2 45 26 3 18 -27 37
-42 27z m24 -30 c2 -7 -3 -12 -12 -12 -9 0 -16 7 -16 16 0 17 22 14 28 -4z"/>
<path d="M792 2354 c-26 -18 -28 -45 -4 -67 24 -22 24 -22 50 -8 26 14 29 52
6 75 -19 20 -24 20 -52 0z m46 -31 c5 -17 -26 -29 -40 -15 -6 6 -7 15 -3 22 9
14 37 9 43 -7z"/>
<path d="M1786 2302 c-11 -18 9 -29 40 -23 9 1 -17 31 -27 31 -4 0 -10 -4 -13
-8z"/>
<path d="M1175 2189 c-27 -4 -66 -10 -86 -13 -61 -8 -190 -55 -266 -96 -186
-100 -327 -246 -418 -434 -236 -488 -38 -1063 449 -1304 l77 -37 -333 1 c-183
0 -341 -3 -350 -8 -28 -14 -22 -46 10 -51 15 -3 237 -5 494 -4 258 1 468 -1
468 -5 0 -4 10 -4 23 0 12 4 254 7 537 6 283 -1 523 0 533 3 20 5 23 36 5 50
-8 6 -149 9 -341 9 -181 -1 -331 2 -333 6 -3 5 2 8 10 8 40 0 212 112 297 192
52 49 159 178 159 191 0 4 13 28 29 56 70 117 118 316 115 471 -1 84 -4 105
-23 206 -29 151 -130 336 -254 466 -122 127 -350 252 -497 272 -25 3 -58 9
-75 12 -49 8 -176 10 -230 3z m206 -63 c192 -17 399 -117 543 -262 125 -124
230 -318 252 -464 3 -19 7 -46 10 -60 18 -101 -2 -301 -42 -418 -87 -258 -305
-476 -565 -565 -70 -24 -91 -29 -181 -43 l-38 -6 32 64 c42 85 48 151 16 197
-12 19 -39 42 -58 52 -39 21 -110 25 -128 7 -7 -7 -12 -9 -12 -5 0 16 -54 -41
-66 -70 -22 -51 -17 -93 21 -171 l34 -72 -47 5 c-291 37 -556 230 -691 502
-106 213 -123 475 -45 696 13 39 29 76 34 81 6 6 10 16 10 24 0 8 26 53 57
100 123 187 296 315 510 377 83 25 208 43 263 39 14 -1 55 -5 91 -8z m-32
-1582 c18 -22 22 -35 18 -63 -5 -35 -74 -171 -87 -171 -13 0 -82 137 -87 172
-5 32 -1 41 26 69 28 27 37 31 69 26 23 -4 46 -17 61 -33z"/>
<path d="M1253 2070 c-73 -16 -123 -76 -123 -146 0 -29 12 -66 38 -117 l38
-76 -41 -7 c-113 -18 -265 -128 -329 -239 -30 -51 -69 -155 -58 -155 4 0 15
-18 25 -40 9 -22 18 -40 20 -40 2 0 4 16 5 36 4 55 39 138 87 203 45 61 82 94
97 85 5 -3 7 0 6 7 -5 18 95 69 166 83 122 26 244 3 346 -65 101 -68 171 -170
194 -282 l12 -60 25 44 25 44 -21 55 c-41 103 -103 183 -187 241 -70 48 -160
86 -210 88 -13 1 -9 15 23 77 41 79 48 123 28 179 -20 55 -104 98 -166 85z
m88 -89 c16 -17 29 -40 29 -54 0 -14 -19 -62 -42 -107 l-42 -82 -19 23 c-31
39 -77 136 -77 164 0 38 50 85 90 85 22 0 41 -9 61 -29z"/>
<path d="M1490 1907 c0 -31 4 -34 79 -70 94 -44 179 -109 240 -184 43 -53 121
-193 121 -218 0 -11 59 -28 69 -19 2 2 -6 30 -18 61 -74 194 -230 354 -422
433 l-69 29 0 -32z"/>
<path d="M987 1905 c-181 -75 -344 -247 -407 -429 -11 -33 -20 -61 -20 -62 0
-2 14 -2 31 0 27 3 34 10 63 77 43 101 82 154 168 233 51 48 98 80 160 109 78
38 87 45 88 70 0 33 -8 33 -83 2z"/>
<path d="M1231 1549 c-110 -21 -196 -129 -195 -244 0 -53 68 -201 152 -331 77
-120 107 -121 182 -3 71 110 131 233 146 296 38 166 -112 315 -285 282z m122
-73 c44 -18 95 -78 103 -121 9 -50 0 -96 -32 -163 -34 -69 -136 -242 -144
-242 -7 0 -130 210 -155 265 -27 58 -30 132 -8 175 10 19 24 34 32 32 7 -1 10
2 7 6 -7 12 21 38 54 51 36 14 106 13 143 -3z"/>
<path d="M1231 1403 c-70 -35 -75 -147 -7 -182 60 -31 124 -12 151 45 27 58 1
121 -59 144 -36 13 -45 13 -85 -7z m79 -63 c27 -27 13 -64 -26 -68 -37 -5 -58
22 -42 52 21 40 39 45 68 16z"/>
<path d="M538 1336 c-50 -25 -78 -73 -78 -133 0 -42 44 -141 93 -207 12 -17
42 -71 66 -120 51 -102 169 -232 261 -288 45 -27 182 -90 186 -84 1 0 4 13 8
27 5 25 1 29 -69 62 -159 76 -252 163 -330 308 l-32 61 34 51 c59 88 86 156
81 209 -11 107 -121 165 -220 114z m129 -56 c1 0 10 -14 19 -31 10 -20 14 -43
10 -61 -8 -41 -76 -160 -89 -155 -6 2 -29 37 -51 78 -37 69 -40 79 -31 115 13
50 59 77 108 63 18 -5 33 -9 34 -9z"/>
<path d="M1905 1346 c-49 -18 -73 -40 -93 -85 -16 -34 -18 -51 -10 -84 10 -47
50 -126 89 -177 l27 -35 -22 -45 c-70 -145 -216 -281 -359 -335 -56 -21 -58
-24 -49 -58 l7 -26 75 32 c93 40 170 91 234 156 27 28 54 47 59 44 6 -4 7 -1
3 6 -5 7 -1 20 7 29 24 27 97 151 97 165 0 7 16 35 36 62 53 73 94 164 94 208
0 104 -101 178 -195 143z m110 -82 c14 -15 25 -39 25 -54 0 -31 -69 -171 -87
-177 -14 -5 -80 111 -89 154 -11 57 28 102 89 103 28 0 44 -7 62 -26z"/>
<path d="M1736 1178 c-3 -7 -7 -30 -10 -52 -13 -97 -111 -239 -202 -292 -109
-64 -244 -86 -353 -58 -152 40 -288 168 -326 309 -5 17 -9 33 -10 38 -2 4 -3
19 -4 35 -2 23 -5 19 -25 -28 -23 -55 -23 -55 -5 -105 25 -67 82 -148 138
-196 189 -161 458 -171 653 -22 74 56 112 102 153 189 l35 70 -20 53 c-11 29
-18 56 -15 62 4 5 4 9 0 9 -3 0 -7 -6 -9 -12z"/>
<path d="M2476 2165 c-16 -17 -12 -40 8 -48 31 -12 55 37 26 53 -14 7 -23 6
-34 -5z m34 -20 c0 -8 -7 -15 -15 -15 -16 0 -20 12 -8 23 11 12 23 8 23 -8z"/>
<path d="M483 1993 c3 -16 1 -23 -9 -23 -8 0 -14 -4 -14 -10 0 -5 7 -7 16 -3
13 5 15 2 9 -18 l-7 -24 17 23 c9 13 23 21 31 18 7 -3 16 -1 19 4 4 6 -3 10
-14 10 -11 0 -27 10 -37 23 l-16 22 5 -22z"/>
<path d="M510 1989 c0 -5 5 -7 10 -4 6 3 10 8 10 11 0 2 -4 4 -10 4 -5 0 -10
-5 -10 -11z"/>
<path d="M52 1951 c-20 -12 -10 -46 14 -49 25 -4 40 24 23 44 -13 16 -19 17
-37 5z m28 -19 c0 -13 -12 -22 -22 -16 -10 6 -1 24 13 24 5 0 9 -4 9 -8z"/>
<path d="M510 1936 c0 -9 5 -16 10 -16 6 0 10 4 10 9 0 6 -4 13 -10 16 -5 3
-10 -1 -10 -9z"/>
<path d="M2222 1798 c-16 -16 -15 -33 2 -47 18 -15 46 -4 46 18 0 17 -18 41
-30 41 -3 0 -11 -5 -18 -12z m30 -23 c0 -5 -5 -11 -11 -13 -6 -2 -11 4 -11 13
0 9 5 15 11 13 6 -2 11 -8 11 -13z"/>
<path d="M17 299 c-23 -13 -21 -36 4 -50 17 -9 23 -8 30 2 20 32 -3 65 -34 48z"/>
<path d="M113 299 c-47 -18 -17 -58 41 -55 34 2 57 29 39 47 -15 15 -52 19
-80 8z"/>
<path d="M2368 293 c-28 -34 38 -66 85 -41 19 10 23 33 7 43 -22 14 -80 12
-92 -2z"/>
<path d="M2512 298 c-16 -16 -15 -33 3 -48 12 -10 18 -10 30 0 20 17 19 37 -3
49 -13 7 -23 6 -30 -1z"/>
<path d="M741 173 c-12 -9 -14 -16 -5 -30 9 -14 27 -19 87 -21 67 -2 77 0 86
17 8 14 7 22 -4 31 -19 16 -143 18 -164 3z"/>
<path d="M968 181 c-21 -6 -27 -24 -17 -43 9 -16 25 -18 139 -18 109 0 130 -2
130 -15 0 -12 -14 -15 -70 -15 -57 0 -71 -3 -79 -18 -20 -38 3 -42 215 -42
166 0 204 3 214 15 26 31 5 44 -76 47 -51 2 -79 7 -82 16 -3 9 27 12 125 12
79 0 133 4 140 11 13 13 5 49 -11 50 -40 3 -618 3 -628 0z"/>
<path d="M1685 182 c-36 -5 -47 -19 -34 -44 9 -16 21 -18 86 -16 59 2 78 7 87
20 8 13 7 21 0 28 -12 12 -87 18 -139 12z"/>
</g>
</svg>
